<?xml version="1.0" ?>
<!-- Uploaded to: SVG Repo, www.svgrepo.com, Generator: SVG Repo Mixer Tools -->
<svg width="800px" height="800px" viewBox="0 0 20 20" version="1.1" xmlns="http://www.w3.org/2000/svg">
<g id="layer1">
<path d="M 10 0 L 8 2 L 0 2 L 0 15 L 8 15 L 8 14 L 1 14 L 1 3 L 17 3 L 17 4.5 L 18 5.5 L 18 2 L 18 0 L 10 0 z M 10.646484 1 L 17 1 L 17 2 L 9.6464844 2 L 10.646484 1 z M 9 5 L 9 20 L 20 20 L 20 10 L 20 9 L 16 5 L 15 5 L 9 5 z M 10 6 L 15 6 L 15 9 L 15 10 L 19 10 L 19 19 L 10 19 L 10 6 z M 16 6.3535156 L 18.646484 9 L 16 9 L 16 6.3535156 z " style="fill:#222222; fill-opacity:1; stroke:none; stroke-width:0px;"/>
</g>
</svg>