<?xml version="1.0" ?>
<!-- Uploaded to: SVG Repo, www.svgrepo.com, Generator: SVG Repo Mixer Tools -->
<svg width="800px" height="800px" viewBox="0 -55.22 512 512" xmlns="http://www.w3.org/2000/svg">
<defs>
<style>.cls-1{fill:none;stroke:#000000;stroke-linecap:round;stroke-linejoin:round;stroke-width:20px;}</style>
</defs>
<g data-name="Layer 2" id="Layer_2">
<g data-name="E433, Document, folder, insert" id="E433_Document_folder_insert">
<path class="cls-1" d="M10,100.37H471.88A30.12,30.12,0,0,1,502,130.49V361.43a30.13,30.13,0,0,1-30.12,30.12H40.12A30.13,30.13,0,0,1,10,361.43V100.37"/>
<path class="cls-1" d="M10,100.37V40.12A30.13,30.13,0,0,1,40.12,10H199.59A30.11,30.11,0,0,1,228,30l25,70.33"/>
<line class="cls-1" x1="256" x2="256" y1="160.18" y2="331.31"/>
<polyline class="cls-1" points="309.48 256.44 256 331.31 202.52 256.44"/>
<path class="cls-1" d="M235.12,50.16H441.76a30.13,30.13,0,0,1,30.12,30.13v20.08"/>
</g>
</g>
</svg>